<mxfile host="app.diagrams.net" modified="2022-01-12T16:44:14.018Z" agent="5.0 (Windows NT 10.0; Win64; x64) AppleWebKit/537.36 (KHTML, like Gecko) Chrome/96.0.4664.110 Safari/537.36" etag="EuUBeaNRVIn9MB41zPlY" version="16.2.4" type="github">
  <diagram id="QvZLLWkVcvTh93FooHiA" name="Page-1">
    <mxGraphModel dx="1422" dy="762" grid="1" gridSize="10" guides="1" tooltips="1" connect="1" arrows="1" fold="1" page="1" pageScale="1" pageWidth="827" pageHeight="1169" math="0" shadow="0">
      <root>
        <mxCell id="0" />
        <mxCell id="1" parent="0" />
        <mxCell id="wge_kd1RUuRpFkDK6sgB-1" value="School User" style="shape=umlActor;verticalLabelPosition=bottom;verticalAlign=top;html=1;outlineConnect=0;" vertex="1" parent="1">
          <mxGeometry x="60" y="260" width="50" height="100" as="geometry" />
        </mxCell>
        <mxCell id="wge_kd1RUuRpFkDK6sgB-2" value="" style="whiteSpace=wrap;html=1;" vertex="1" parent="1">
          <mxGeometry x="230" y="60" width="520" height="550" as="geometry" />
        </mxCell>
        <mxCell id="wge_kd1RUuRpFkDK6sgB-3" value="Register" style="ellipse;whiteSpace=wrap;html=1;fillColor=#fff2cc;strokeColor=#d6b656;" vertex="1" parent="1">
          <mxGeometry x="280" y="110" width="160" height="90" as="geometry" />
        </mxCell>
        <mxCell id="wge_kd1RUuRpFkDK6sgB-4" value="Login" style="ellipse;whiteSpace=wrap;html=1;fillColor=#d5e8d4;strokeColor=#82b366;" vertex="1" parent="1">
          <mxGeometry x="350" y="230" width="170" height="90" as="geometry" />
        </mxCell>
        <mxCell id="wge_kd1RUuRpFkDK6sgB-5" value="View school project details" style="ellipse;whiteSpace=wrap;html=1;fillColor=#d5e8d4;strokeColor=#82b366;" vertex="1" parent="1">
          <mxGeometry x="350" y="350" width="180" height="110" as="geometry" />
        </mxCell>
        <mxCell id="wge_kd1RUuRpFkDK6sgB-7" value="Answer question" style="ellipse;whiteSpace=wrap;html=1;fillColor=#d5e8d4;strokeColor=#82b366;" vertex="1" parent="1">
          <mxGeometry x="260" y="485" width="140" height="100" as="geometry" />
        </mxCell>
        <mxCell id="wge_kd1RUuRpFkDK6sgB-8" value="" style="endArrow=classic;html=1;rounded=0;entryX=0;entryY=1;entryDx=0;entryDy=0;" edge="1" parent="1" source="wge_kd1RUuRpFkDK6sgB-1" target="wge_kd1RUuRpFkDK6sgB-3">
          <mxGeometry width="50" height="50" relative="1" as="geometry">
            <mxPoint x="390" y="410" as="sourcePoint" />
            <mxPoint x="150" y="230" as="targetPoint" />
          </mxGeometry>
        </mxCell>
        <mxCell id="wge_kd1RUuRpFkDK6sgB-10" value="" style="endArrow=classic;html=1;rounded=0;" edge="1" parent="1" source="wge_kd1RUuRpFkDK6sgB-1" target="wge_kd1RUuRpFkDK6sgB-4">
          <mxGeometry width="50" height="50" relative="1" as="geometry">
            <mxPoint x="390" y="410" as="sourcePoint" />
            <mxPoint x="440" y="360" as="targetPoint" />
          </mxGeometry>
        </mxCell>
        <mxCell id="wge_kd1RUuRpFkDK6sgB-11" value="" style="endArrow=classic;html=1;rounded=0;entryX=0;entryY=0.5;entryDx=0;entryDy=0;" edge="1" parent="1" source="wge_kd1RUuRpFkDK6sgB-1" target="wge_kd1RUuRpFkDK6sgB-5">
          <mxGeometry width="50" height="50" relative="1" as="geometry">
            <mxPoint x="390" y="410" as="sourcePoint" />
            <mxPoint x="440" y="360" as="targetPoint" />
          </mxGeometry>
        </mxCell>
        <mxCell id="wge_kd1RUuRpFkDK6sgB-12" value="" style="endArrow=classic;html=1;rounded=0;entryX=0;entryY=0.5;entryDx=0;entryDy=0;" edge="1" parent="1" source="wge_kd1RUuRpFkDK6sgB-1" target="wge_kd1RUuRpFkDK6sgB-7">
          <mxGeometry width="50" height="50" relative="1" as="geometry">
            <mxPoint x="390" y="410" as="sourcePoint" />
            <mxPoint x="440" y="360" as="targetPoint" />
          </mxGeometry>
        </mxCell>
        <mxCell id="wge_kd1RUuRpFkDK6sgB-14" value="" style="rounded=0;whiteSpace=wrap;html=1;fillColor=#d5e8d4;strokeColor=#82b366;" vertex="1" parent="1">
          <mxGeometry x="230" y="630" width="40" height="30" as="geometry" />
        </mxCell>
        <mxCell id="wge_kd1RUuRpFkDK6sgB-15" value="Initial Use Case from the high-level use case" style="text;html=1;align=center;verticalAlign=middle;resizable=0;points=[];autosize=1;strokeColor=none;fillColor=none;" vertex="1" parent="1">
          <mxGeometry x="270" y="635" width="250" height="20" as="geometry" />
        </mxCell>
        <mxCell id="wge_kd1RUuRpFkDK6sgB-16" value="" style="rounded=0;whiteSpace=wrap;html=1;fillColor=#fff2cc;strokeColor=#d6b656;" vertex="1" parent="1">
          <mxGeometry x="230" y="670" width="40" height="30" as="geometry" />
        </mxCell>
        <mxCell id="wge_kd1RUuRpFkDK6sgB-17" value="New use case suggestions" style="text;html=1;align=center;verticalAlign=middle;resizable=0;points=[];autosize=1;strokeColor=none;fillColor=none;" vertex="1" parent="1">
          <mxGeometry x="300" y="675" width="160" height="20" as="geometry" />
        </mxCell>
      </root>
    </mxGraphModel>
  </diagram>
</mxfile>
